<?xml version="1.0" standalone="no"?>
<!DOCTYPE svg PUBLIC "-//W3C//DTD SVG 20010904//EN"
 "http://www.w3.org/TR/2001/REC-SVG-20010904/DTD/svg10.dtd">
<svg version="1.0" xmlns="http://www.w3.org/2000/svg"
 width="1159.000000pt" height="1159.000000pt" viewBox="0 0 1159.000000 1159.000000"
 preserveAspectRatio="xMidYMid meet">
<metadata>
Created by potrace 1.14, written by Peter Selinger 2001-2017
</metadata>
<g transform="translate(0.000000,1159.000000) scale(0.100000,-0.100000)"
fill="#000000" stroke="none">
<path d="M5140 11455 l-75 -76 -1 -727 c-1 -400 -2 -729 -3 -732 -1 -3 -946
-5 -2101 -5 l-2100 1 -75 -76 -75 -75 -2 -1665 -3 -1664 -319 -236 c-311 -230
-319 -236 -352 -298 l-34 -64 0 -2802 0 -2803 82 -82 82 -81 5638 0 5639 0 74
76 75 75 0 5579 0 5578 -74 76 -75 76 -3113 0 -3114 0 -74 -75z m6150 -5656
l0 -5429 -1680 0 -1680 0 -2 2753 -3 2752 -33 61 c-37 69 -24 58 -332 291
-124 93 -297 225 -385 292 -88 67 -239 181 -335 253 -96 73 -177 134 -180 137
-3 4 -41 33 -85 66 -44 32 -84 63 -90 67 -16 13 -238 181 -269 203 -16 11 -33
25 -40 30 -6 6 -189 145 -406 310 -217 164 -397 302 -400 306 -4 6 -5 3330 -1
3336 0 1 1333 1 2961 1 l2960 0 0 -5429z m-6245 3809 c3 -3 4 -356 3 -786 l-3
-780 -490 361 -490 361 -115 3 -115 2 -200 -145 c-110 -80 -229 -166 -265
-193 -36 -26 -119 -86 -185 -134 -115 -83 -428 -311 -470 -341 -11 -8 -195
-142 -410 -298 -214 -156 -401 -291 -415 -301 -14 -10 -155 -113 -315 -229
-159 -115 -301 -218 -315 -228 -14 -10 -52 -38 -85 -62 -33 -24 -84 -61 -112
-82 l-53 -38 0 1445 0 1446 23 3 c37 5 4007 1 4012 -4z m-929 -1289 c206 -151
1037 -762 1051 -774 7 -5 36 -27 65 -48 68 -49 1486 -1092 1683 -1238 50 -36
180 -132 290 -213 110 -81 213 -157 228 -169 16 -11 60 -44 100 -73 l72 -52 0
-2676 c0 -1775 -3 -2677 -10 -2679 -9 -2 -2453 -1 -2480 2 -7 1 -10 515 -10
1522 l0 1521 -47 50 -48 51 -1036 0 -1036 0 -50 -50 -50 -50 -1 -1524 -2
-1523 -1248 0 c-790 -1 -1251 3 -1255 9 -7 11 -9 5334 -2 5344 3 4 41 34 85
66 44 33 85 63 90 67 15 13 177 131 201 148 12 8 180 132 374 275 450 332 683
504 895 660 94 68 391 287 660 486 270 198 621 457 780 574 160 117 344 254
410 303 66 50 127 91 136 91 8 1 78 -45 155 -100z m787 -4978 c9 -1 9 -2941 0
-2942 -5 0 -425 -2 -936 -2 -612 -1 -927 1 -928 8 -3 27 -5 2921 -2 2930 2 7
319 10 931 9 510 -1 930 -2 935 -3z"/>
<path d="M6229 10644 l-50 -51 0 -1033 -1 -1033 51 -50 50 -50 655 0 656 0 50
50 50 51 0 1034 0 1034 -50 49 -51 50 -655 0 -654 0 -51 -51z m1259 -1081 l2
-933 -22 -1 c-29 0 -1000 0 -1050 0 l-38 1 0 928 c0 511 2 931 4 933 3 2 251
4 553 4 l548 0 3 -932z"/>
<path d="M9085 10646 l-50 -49 0 -1035 0 -1034 55 -51 55 -52 651 1 651 1 49
51 49 51 1 1033 1 1033 -50 50 -49 50 -656 0 -657 0 -50 -49z m1255 -155 c3 0
6 -419 6 -931 l0 -930 -31 -1 c-166 -3 -1066 0 -1072 4 -6 4 -10 1861 -4 1862
7 1 1097 -3 1101 -4z"/>
<path d="M9085 7170 l-50 -51 -1 -1032 0 -1032 50 -52 50 -53 656 0 656 0 49
50 50 51 1 1032 1 1032 -51 53 -50 52 -656 0 -656 0 -49 -50z m1261 -1085 l0
-934 -556 2 -555 2 -1 925 c0 509 1 928 3 932 2 4 252 6 556 6 l553 0 0 -933z"/>
<path d="M9085 3926 l-50 -49 0 -1034 0 -1034 52 -51 51 -51 655 0 654 0 49
51 49 51 1 1033 1 1033 -50 50 -49 50 -656 0 -657 0 -50 -49z m1255 -155 c3 0
6 -419 6 -931 l0 -930 -26 -1 c-33 0 -982 0 -1040 0 l-45 1 1 933 c1 512 2
932 3 932 8 1 1097 -3 1101 -4z"/>
</g>
</svg>
